<svg xmlns="http://www.w3.org/2000/svg" xmlns:xlink="http://www.w3.org/1999/xlink" viewBox="0 0 500 500"><defs><style>.cls-1{isolation:isolate;}.cls-2,.cls-71,.cls-72,.cls-92{fill:#fff;}.cls-3,.cls-4,.cls-48,.cls-75{mix-blend-mode:multiply;}.cls-3{fill:url(#Degradado_sin_nombre_21);}.cls-4{fill:#210656;}.cls-4,.cls-92{opacity:0.28;}.cls-5{fill:#d0ddff;}.cls-6{fill:#d8f4ff;}.cls-7{fill:#e6ffff;}.cls-8{fill:#bec0e9;}.cls-9{fill:#000039;}.cls-10{fill:#003284;}.cls-11{fill:#93a5c9;}.cls-12{fill:#a3bad7;}.cls-13{fill:#bbc5e1;}.cls-14{fill:#e1f1ff;}.cls-15{fill:#e5f0ff;}.cls-16{fill:#e0f3ff;}.cls-17{fill:#b6bad7;}.cls-18,.cls-73{fill:#00a3ff;}.cls-19{fill:#35efff;}.cls-20{fill:#00d4ff;}.cls-21{fill:#0075ec;}.cls-22{fill:#ffe200;}.cls-23{fill:#ffff4e;}.cls-24{fill:#ff2149;}.cls-25{fill:#ff528a;}.cls-26{fill:#0fe490;}.cls-27{fill:#45ffc6;}.cls-28{fill:#1fffc6;}.cls-29{fill:#0042ff;}.cls-30{fill:#ff3edd;}.cls-31{fill:#ff497e;}.cls-32{fill:#ffc400;}.cls-33{opacity:0.34;}.cls-34{fill:#ff1754;}.cls-35{fill:#ff3faa;}.cls-36{fill:#b5112b;}.cls-37{fill:#ff478b;}.cls-38{fill:#df093c;}.cls-39{fill:#dfe4ff;}.cls-40{fill:#c5c4e0;}.cls-41{fill:#ffd300;}.cls-42{fill:#02fd00;}.cls-43{fill:#d6deeb;}.cls-44{fill:#bccacb;}.cls-45{fill:#e9f1eb;}.cls-46{fill:#e6f8ff;}.cls-47,.cls-48{fill:#d1dded;}.cls-49{fill:#682118;}.cls-50{fill:#9a2f18;}.cls-51{fill:#7f2e18;}.cls-52{fill:#b45a18;}.cls-53{fill:#9b4318;}.cls-54{fill:#c35e18;}.cls-55{fill:#b45018;}.cls-56{fill:#dc6218;}.cls-57{fill:url(#Degradado_sin_nombre_30);}.cls-58{fill:url(#Degradado_sin_nombre_30-2);}.cls-59{fill:url(#Degradado_sin_nombre_30-3);}.cls-60{fill:#ff3967;}.cls-61{fill:#d1f0ff;}.cls-62{fill:#bdc6f4;}.cls-63{fill:#9a9cdf;}.cls-64{fill:#ffeeb1;}.cls-65{fill:#ff0;}.cls-66{fill:#ffd100;}.cls-67{fill:#ffa600;}.cls-68{fill:#ffdb00;}.cls-69{fill:#ffff6c;}.cls-70{fill:#ffb800;}.cls-71{opacity:0.2;}.cls-72{opacity:0.53;}.cls-73,.cls-76{opacity:0.3;}.cls-74{fill:#00e3ff;opacity:0.4;}.cls-75{fill:#009fe3;opacity:0.3;}.cls-76{fill:#002ab4;}.cls-77{fill:#ff2232;}.cls-78{fill:#ff787d;}.cls-79{fill:#b51413;}.cls-80{fill:#ffc500;}.cls-81{fill:#ffed00;}.cls-82{fill:#ff9700;}.cls-83{fill:#ffb100;}.cls-84{fill:#3dd376;}.cls-85{fill:#84fa9c;}.cls-86{fill:#1a9f58;}.cls-87,.cls-89,.cls-90,.cls-91{fill:none;stroke-linecap:round;stroke-linejoin:round;stroke-width:2px;}.cls-87{stroke:#12d77e;}.cls-88{fill:#12d77e;}.cls-89{stroke:#12ffff;}.cls-90{stroke:#ff3181;}.cls-91{stroke:#ffd000;}.cls-93{fill:#12ffff;}.cls-94{fill:#ff3181;}.cls-95{fill:#ffd000;}</style><linearGradient id="Degradado_sin_nombre_21" x1="250" y1="500" x2="250" y2="140.1399" gradientUnits="userSpaceOnUse"><stop offset="0" stop-color="#fff" stop-opacity="0"/><stop offset="0.9979" stop-color="#17083e"/></linearGradient><linearGradient id="Degradado_sin_nombre_30" x1="78.2645" y1="331.6025" x2="50.4124" y2="303.7504" gradientUnits="userSpaceOnUse"><stop offset="0" stop-color="#e6eeff" stop-opacity="0"/><stop offset="0.9979" stop-color="#e6eeff"/></linearGradient><linearGradient id="Degradado_sin_nombre_30-2" x1="71.8238" y1="339.6652" x2="58.8779" y2="326.7193" xlink:href="#Degradado_sin_nombre_30"/><linearGradient id="Degradado_sin_nombre_30-3" x1="97.2496" y1="343.365" x2="89.1537" y2="335.2691" xlink:href="#Degradado_sin_nombre_30"/></defs><title>computer_code_vector_graphic</title><g class="cls-1"><g id="BACKGROUND"><rect class="cls-2" width="500" height="500"/></g><g id="OBJECTS"><polyline class="cls-3" points="133.707 270.003 0 500 500 500 369.292 265.534 277.741 265.534 202.136 278.529 133.707 270.003"/><rect class="cls-4" x="136.3868" y="263.7203" width="230.978" height="144.785" rx="13.6425"/><rect class="cls-5" x="133.7072" y="256.3609" width="236.3373" height="148.1444" rx="13.6425"/><path class="cls-6" d="M356.402,402.6591H147.35a13.6425,13.6425,0,0,1-13.6425-13.6425v1.8462A13.6425,13.6425,0,0,0,147.35,404.5054H356.402a13.6426,13.6426,0,0,0,13.6425-13.6426v-1.8462A13.6426,13.6426,0,0,1,356.402,402.6591Z"/><rect class="cls-7" x="152.7931" y="272.2789" width="198.1656" height="87.2286" rx="4.812"/><rect class="cls-8" x="152.7931" y="272.2789" width="198.1656" height="85.8806" rx="4.812"/><path class="cls-9" d="M239.721,339.27h9.5859a1.0029,1.0029,0,0,0,1-1V329.458a1.0029,1.0029,0,0,0-1-1H239.721a1.0029,1.0029,0,0,0-1,1V338.27A1.0029,1.0029,0,0,0,239.721,339.27Zm-15.7237,0h9.5859a1.0029,1.0029,0,0,0,1-1V329.458a1.0029,1.0029,0,0,0-1-1h-9.5859a1.0029,1.0029,0,0,0-1,1V338.27A1.0029,1.0029,0,0,0,223.9973,339.27Zm-62.8948-41.5614h9.5859a1.0029,1.0029,0,0,0,1-1v-8.8116a1.0029,1.0029,0,0,0-1-1h-9.5859a1.0029,1.0029,0,0,0-1,1v8.8116A1.0029,1.0029,0,0,0,161.1025,297.7083Zm62.8948,13.0858h9.5859a1.0029,1.0029,0,0,0,1-1v-8.8117a1.003,1.003,0,0,0-1-1h-9.5859a1.003,1.003,0,0,0-1,1v8.8117A1.0029,1.0029,0,0,0,223.9973,310.7941Zm0,14.2378h9.5859a1.0029,1.0029,0,0,0,1-1V315.22a1.003,1.003,0,0,0-1-1h-9.5859a1.003,1.003,0,0,0-1,1v8.8117A1.0029,1.0029,0,0,0,223.9973,325.0319Zm0-40.0662h9.5859a1.0029,1.0029,0,0,0,1-1v-4.6205a1.0029,1.0029,0,0,0-1-1h-9.5859a1.0029,1.0029,0,0,0-1,1v4.6205A1.0029,1.0029,0,0,0,223.9973,284.9657Zm0,12.7426h9.5859a1.0029,1.0029,0,0,0,1-1v-8.8116a1.0029,1.0029,0,0,0-1-1h-9.5859a1.0029,1.0029,0,0,0-1,1v8.8116A1.0029,1.0029,0,0,0,223.9973,297.7083Zm-62.8948-12.7426h9.5859a1.0029,1.0029,0,0,0,1-1v-4.6205a1.0029,1.0029,0,0,0-1-1h-9.5859a1.0029,1.0029,0,0,0-1,1v4.6205A1.0029,1.0029,0,0,0,161.1025,284.9657Zm25.31,15.0167h-25.31a1.003,1.003,0,0,0-1,1v8.8117a1.0029,1.0029,0,0,0,1,1h25.31a1.0029,1.0029,0,0,0,1-1v-8.8117A1.003,1.003,0,0,0,186.4121,299.9824Zm0,14.2378h-9.5859a1.003,1.003,0,0,0-1,1v8.8117a1.0029,1.0029,0,0,0,1,1h9.5859a1.0029,1.0029,0,0,0,1-1V315.22A1.003,1.003,0,0,0,186.4121,314.22ZM170.6884,328.458h-9.5859a1.0029,1.0029,0,0,0-1,1V338.27a1.0029,1.0029,0,0,0,1,1h9.5859a1.0029,1.0029,0,0,0,1-1V329.458A1.0029,1.0029,0,0,0,170.6884,328.458Zm15.7237-41.5613h-9.5859a1.0029,1.0029,0,0,0-1,1v8.8116a1.0029,1.0029,0,0,0,1,1h9.5859a1.0029,1.0029,0,0,0,1-1v-8.8116A1.0029,1.0029,0,0,0,186.4121,286.8967Zm0,41.5613h-9.5859a1.0029,1.0029,0,0,0-1,1V338.27a1.0029,1.0029,0,0,0,1,1h9.5859a1.0029,1.0029,0,0,0,1-1V329.458A1.0029,1.0029,0,0,0,186.4121,328.458ZM170.6884,314.22h-9.5859a1.003,1.003,0,0,0-1,1v8.8117a1.0029,1.0029,0,0,0,1,1h9.5859a1.0029,1.0029,0,0,0,1-1V315.22A1.003,1.003,0,0,0,170.6884,314.22Zm15.7237,28.4756h-9.5859a1.0029,1.0029,0,0,0-1,1v8.8117a1.0029,1.0029,0,0,0,1,1h9.5859a1.0029,1.0029,0,0,0,1-1v-8.8117A1.0029,1.0029,0,0,0,186.4121,342.6958Zm84.7564-17.6639h9.5858a1.0029,1.0029,0,0,0,1-1V315.22a1.003,1.003,0,0,0-1-1h-9.5858a1.0029,1.0029,0,0,0-1,1v8.8117A1.0029,1.0029,0,0,0,271.1685,325.0319Zm-31.4475,0h9.5859a1.0029,1.0029,0,0,0,1-1V315.22a1.003,1.003,0,0,0-1-1H239.721a1.003,1.003,0,0,0-1,1v8.8117A1.0029,1.0029,0,0,0,239.721,325.0319Zm31.4475-14.2378h9.5858a1.0029,1.0029,0,0,0,1-1v-8.8117a1.003,1.003,0,0,0-1-1h-9.5858a1.0029,1.0029,0,0,0-1,1v8.8117A1.0029,1.0029,0,0,0,271.1685,310.7941Zm-15.7237-25.8284h9.5858a1.0029,1.0029,0,0,0,1-1v-4.6205a1.0029,1.0029,0,0,0-1-1h-9.5858a1.0029,1.0029,0,0,0-1,1v4.6205A1.0029,1.0029,0,0,0,255.4448,284.9657Zm15.7237,54.304h9.5858a1.0029,1.0029,0,0,0,1-1V329.458a1.0029,1.0029,0,0,0-1-1h-9.5858a1.0029,1.0029,0,0,0-1,1V338.27A1.0029,1.0029,0,0,0,271.1685,339.27Zm47.171-54.304h9.5859a1.0029,1.0029,0,0,0,1-1v-4.6205a1.0029,1.0029,0,0,0-1-1H318.34a1.0029,1.0029,0,0,0-1,1v4.6205A1.0029,1.0029,0,0,0,318.34,284.9657Zm-47.171,0h9.5858a1.0029,1.0029,0,0,0,1-1v-4.6205a1.0029,1.0029,0,0,0-1-1h-9.5858a1.0029,1.0029,0,0,0-1,1v4.6205A1.0029,1.0029,0,0,0,271.1685,284.9657Zm0,12.7426h9.5858a1.0029,1.0029,0,0,0,1-1v-8.8116a1.0029,1.0029,0,0,0-1-1h-9.5858a1.0029,1.0029,0,0,0-1,1v8.8116A1.0029,1.0029,0,0,0,271.1685,297.7083Zm-84.7564-19.3631h-9.5859a1.0029,1.0029,0,0,0-1,1v4.6205a1.0029,1.0029,0,0,0,1,1h9.5859a1.0029,1.0029,0,0,0,1-1v-4.6205A1.0029,1.0029,0,0,0,186.4121,278.3452Zm53.3089,19.3631h9.5859a1.0029,1.0029,0,0,0,1-1v-8.8116a1.0029,1.0029,0,0,0-1-1H239.721a1.0029,1.0029,0,0,0-1,1v8.8116A1.0029,1.0029,0,0,0,239.721,297.7083Zm15.7238,0h9.5858a1.0029,1.0029,0,0,0,1-1v-8.8116a1.0029,1.0029,0,0,0-1-1h-9.5858a1.0029,1.0029,0,0,0-1,1v8.8116A1.0029,1.0029,0,0,0,255.4448,297.7083ZM239.721,310.7941h9.5859a1.0029,1.0029,0,0,0,1-1v-8.8117a1.003,1.003,0,0,0-1-1H239.721a1.003,1.003,0,0,0-1,1v8.8117A1.0029,1.0029,0,0,0,239.721,310.7941Zm0-25.8284h9.5859a1.0029,1.0029,0,0,0,1-1v-4.6205a1.0029,1.0029,0,0,0-1-1H239.721a1.0029,1.0029,0,0,0-1,1v4.6205A1.0029,1.0029,0,0,0,239.721,284.9657Zm15.7238,54.304h9.5858a1.0029,1.0029,0,0,0,1-1V329.458a1.0029,1.0029,0,0,0-1-1h-9.5858a1.0029,1.0029,0,0,0-1,1V338.27A1.0029,1.0029,0,0,0,255.4448,339.27Zm0-28.4756h9.5858a1.0029,1.0029,0,0,0,1-1v-8.8117a1.003,1.003,0,0,0-1-1h-9.5858a1.0029,1.0029,0,0,0-1,1v8.8117A1.0029,1.0029,0,0,0,255.4448,310.7941Zm0,14.2378h9.5858a1.0029,1.0029,0,0,0,1-1V315.22a1.003,1.003,0,0,0-1-1h-9.5858a1.0029,1.0029,0,0,0-1,1v8.8117A1.0029,1.0029,0,0,0,255.4448,325.0319Zm-84.7564,17.6639h-9.5859a1.0029,1.0029,0,0,0-1,1v8.8117a1.0029,1.0029,0,0,0,1,1h9.5859a1.0029,1.0029,0,0,0,1-1v-8.8117A1.0029,1.0029,0,0,0,170.6884,342.6958ZM312.2017,314.22h-9.5859a1.003,1.003,0,0,0-1,1v8.8117a1.0029,1.0029,0,0,0,1,1h9.5859a1.0029,1.0029,0,0,0,1-1V315.22A1.003,1.003,0,0,0,312.2017,314.22Zm0-14.2378h-9.5859a1.003,1.003,0,0,0-1,1v8.8117a1.0029,1.0029,0,0,0,1,1h9.5859a1.0029,1.0029,0,0,0,1-1v-8.8117A1.003,1.003,0,0,0,312.2017,299.9824Zm15.7237,42.7134H318.34a1.0029,1.0029,0,0,0-1,1v8.8117a1.0029,1.0029,0,0,0,1,1h9.5859a1.0029,1.0029,0,0,0,1-1v-8.8117A1.0029,1.0029,0,0,0,327.9254,342.6958Zm-15.7237-64.3506h-9.5859a1.0029,1.0029,0,0,0-1,1v4.6205a1.0029,1.0029,0,0,0,1,1h9.5859a1.0029,1.0029,0,0,0,1-1v-4.6205A1.0029,1.0029,0,0,0,312.2017,278.3452Zm0,8.5515h-9.5859a1.0029,1.0029,0,0,0-1,1v8.8116a1.0029,1.0029,0,0,0,1,1h9.5859a1.0029,1.0029,0,0,0,1-1v-8.8116A1.0029,1.0029,0,0,0,312.2017,286.8967Zm-15.7237,0h-9.5858a1.0029,1.0029,0,0,0-1,1v8.8116a1.0029,1.0029,0,0,0,1,1h9.5858a1.0029,1.0029,0,0,0,1-1v-8.8116A1.0029,1.0029,0,0,0,296.478,286.8967Zm0-8.5515h-9.5858a1.0029,1.0029,0,0,0-1,1v4.6205a1.0029,1.0029,0,0,0,1,1h9.5858a1.0029,1.0029,0,0,0,1-1v-4.6205A1.0029,1.0029,0,0,0,296.478,278.3452Zm15.7237,64.3506h-9.5859a1.0029,1.0029,0,0,0-1,1v8.8117a1.0029,1.0029,0,0,0,1,1h9.5859a1.0029,1.0029,0,0,0,1-1v-8.8117A1.0029,1.0029,0,0,0,312.2017,342.6958Zm0-14.2378h-9.5859a1.0029,1.0029,0,0,0-1,1V338.27a1.0029,1.0029,0,0,0,1,1h9.5859a1.0029,1.0029,0,0,0,1-1V329.458A1.0029,1.0029,0,0,0,312.2017,328.458Zm31.4475-41.5613H318.34a1.0029,1.0029,0,0,0-1,1v8.8116a1.0029,1.0029,0,0,0,1,1h25.31a1.0029,1.0029,0,0,0,1-1v-8.8116A1.0029,1.0029,0,0,0,343.6492,286.8967Zm0-8.5515h-9.586a1.0029,1.0029,0,0,0-1,1v4.6205a1.0029,1.0029,0,0,0,1,1h9.586a1.0029,1.0029,0,0,0,1-1v-4.6205A1.0029,1.0029,0,0,0,343.6492,278.3452Zm0,21.6372H318.34a1.003,1.003,0,0,0-1,1v8.8117a1.0029,1.0029,0,0,0,1,1h13.7237a1.0029,1.0029,0,0,1,1,1v12.2378a1.0029,1.0029,0,0,0,1,1h9.586a1.0029,1.0029,0,0,0,1-1v-23.05A1.003,1.003,0,0,0,343.6492,299.9824ZM202.1358,342.6958H192.55a1.0029,1.0029,0,0,0-1,1v8.8117a1.0029,1.0029,0,0,0,1,1h9.5859a1.0029,1.0029,0,0,0,1-1v-8.8117A1.0029,1.0029,0,0,0,202.1358,342.6958Zm125.79-14.2378H318.34a1.0029,1.0029,0,0,0-1,1V338.27a1.0029,1.0029,0,0,0,1,1h9.5859a1.0029,1.0029,0,0,0,1-1V329.458A1.0029,1.0029,0,0,0,327.9254,328.458Zm0-14.2378H318.34a1.003,1.003,0,0,0-1,1v8.8117a1.0029,1.0029,0,0,0,1,1h9.5859a1.0029,1.0029,0,0,0,1-1V315.22A1.003,1.003,0,0,0,327.9254,314.22Zm15.7238,28.4756h-9.586a1.0029,1.0029,0,0,0-1,1v8.8117a1.0029,1.0029,0,0,0,1,1h9.586a1.0029,1.0029,0,0,0,1-1v-8.8117A1.0029,1.0029,0,0,0,343.6492,342.6958Zm0-14.2378h-9.586a1.0029,1.0029,0,0,0-1,1V338.27a1.0029,1.0029,0,0,0,1,1h9.586a1.0029,1.0029,0,0,0,1-1V329.458A1.0029,1.0029,0,0,0,343.6492,328.458Zm-125.79,0h-9.5859a1.0029,1.0029,0,0,0-1,1V338.27a1.0029,1.0029,0,0,0,1,1H217.86a1.0029,1.0029,0,0,0,1-1V329.458A1.0029,1.0029,0,0,0,217.86,328.458Zm-15.7237-41.5613H192.55a1.0029,1.0029,0,0,0-1,1v8.8116a1.0029,1.0029,0,0,0,1,1h9.5859a1.0029,1.0029,0,0,0,1-1v-8.8116A1.0029,1.0029,0,0,0,202.1358,286.8967ZM217.86,342.6958h-9.5859a1.0029,1.0029,0,0,0-1,1v8.8117a1.0029,1.0029,0,0,0,1,1H217.86a1.0029,1.0029,0,0,0,1-1v-8.8117A1.0029,1.0029,0,0,0,217.86,342.6958Zm-15.7237-64.3506H192.55a1.0029,1.0029,0,0,0-1,1v4.6205a1.0029,1.0029,0,0,0,1,1h9.5859a1.0029,1.0029,0,0,0,1-1v-4.6205A1.0029,1.0029,0,0,0,202.1358,278.3452Zm94.3422,21.6372h-9.5858a1.0029,1.0029,0,0,0-1,1v8.8117a1.0029,1.0029,0,0,0,1,1h9.5858a1.0029,1.0029,0,0,0,1-1v-8.8117A1.003,1.003,0,0,0,296.478,299.9824ZM202.1358,328.458H192.55a1.0029,1.0029,0,0,0-1,1V338.27a1.0029,1.0029,0,0,0,1,1h9.5859a1.0029,1.0029,0,0,0,1-1V329.458A1.0029,1.0029,0,0,0,202.1358,328.458Zm0-14.2378H192.55a1.003,1.003,0,0,0-1,1v8.8117a1.0029,1.0029,0,0,0,1,1h9.5859a1.0029,1.0029,0,0,0,1-1V315.22A1.003,1.003,0,0,0,202.1358,314.22Zm0-14.2378H192.55a1.003,1.003,0,0,0-1,1v8.8117a1.0029,1.0029,0,0,0,1,1h9.5859a1.0029,1.0029,0,0,0,1-1v-8.8117A1.003,1.003,0,0,0,202.1358,299.9824ZM217.86,314.22h-9.5859a1.003,1.003,0,0,0-1,1v8.8117a1.0029,1.0029,0,0,0,1,1H217.86a1.0029,1.0029,0,0,0,1-1V315.22A1.003,1.003,0,0,0,217.86,314.22Zm78.6185,0h-9.5858a1.0029,1.0029,0,0,0-1,1v8.8117a1.0029,1.0029,0,0,0,1,1h9.5858a1.0029,1.0029,0,0,0,1-1V315.22A1.003,1.003,0,0,0,296.478,314.22Zm0,28.4756H223.9973a1.0029,1.0029,0,0,0-1,1v8.8117a1.0029,1.0029,0,0,0,1,1H296.478a1.0029,1.0029,0,0,0,1-1v-8.8117A1.0029,1.0029,0,0,0,296.478,342.6958Zm0-14.2378h-9.5858a1.0029,1.0029,0,0,0-1,1V338.27a1.0029,1.0029,0,0,0,1,1h9.5858a1.0029,1.0029,0,0,0,1-1V329.458A1.0029,1.0029,0,0,0,296.478,328.458ZM217.86,299.9824h-9.5859a1.003,1.003,0,0,0-1,1v8.8117a1.0029,1.0029,0,0,0,1,1H217.86a1.0029,1.0029,0,0,0,1-1v-8.8117A1.003,1.003,0,0,0,217.86,299.9824Zm0-13.0857h-9.5859a1.0029,1.0029,0,0,0-1,1v8.8116a1.0029,1.0029,0,0,0,1,1H217.86a1.0029,1.0029,0,0,0,1-1v-8.8116A1.0029,1.0029,0,0,0,217.86,286.8967Zm0-8.5515h-9.5859a1.0029,1.0029,0,0,0-1,1v4.6205a1.0029,1.0029,0,0,0,1,1H217.86a1.0029,1.0029,0,0,0,1-1v-4.6205A1.0029,1.0029,0,0,0,217.86,278.3452Z"/><path class="cls-10" d="M161.1025,278.5288h9.5859a1.0029,1.0029,0,0,1,1,1v-.1836a1.0029,1.0029,0,0,0-1-1h-9.5859a1.0029,1.0029,0,0,0-1,1v.1836A1.0029,1.0029,0,0,1,161.1025,278.5288Z"/><path class="cls-10" d="M161.1025,287.08h9.5859a1.0029,1.0029,0,0,1,1,1v-.1836a1.0029,1.0029,0,0,0-1-1h-9.5859a1.0029,1.0029,0,0,0-1,1v.1836A1.0029,1.0029,0,0,1,161.1025,287.08Z"/><path class="cls-10" d="M223.9973,328.6416h9.5859a1.0029,1.0029,0,0,1,1,1v-.1836a1.0029,1.0029,0,0,0-1-1h-9.5859a1.0029,1.0029,0,0,0-1,1v.1836A1.0029,1.0029,0,0,1,223.9973,328.6416Z"/><path class="cls-10" d="M223.9973,300.166h9.5859a1.003,1.003,0,0,1,1,1v-.1836a1.003,1.003,0,0,0-1-1h-9.5859a1.003,1.003,0,0,0-1,1v.1836A1.003,1.003,0,0,1,223.9973,300.166Z"/><path class="cls-10" d="M223.9973,287.08h9.5859a1.0029,1.0029,0,0,1,1,1v-.1836a1.0029,1.0029,0,0,0-1-1h-9.5859a1.0029,1.0029,0,0,0-1,1v.1836A1.0029,1.0029,0,0,1,223.9973,287.08Z"/><path class="cls-10" d="M223.9973,314.4038h9.5859a1.0029,1.0029,0,0,1,1,1V315.22a1.003,1.003,0,0,0-1-1h-9.5859a1.003,1.003,0,0,0-1,1v.1836A1.0029,1.0029,0,0,1,223.9973,314.4038Z"/><path class="cls-10" d="M170.6884,342.6958h-9.5859a1.0029,1.0029,0,0,0-1,1v.1836a1.0029,1.0029,0,0,1,1-1h9.5859a1.0029,1.0029,0,0,1,1,1v-.1836A1.0029,1.0029,0,0,0,170.6884,342.6958Z"/><path class="cls-10" d="M186.4121,314.22h-9.5859a1.003,1.003,0,0,0-1,1v.1836a1.0029,1.0029,0,0,1,1-1h9.5859a1.0029,1.0029,0,0,1,1,1V315.22A1.003,1.003,0,0,0,186.4121,314.22Z"/><path class="cls-10" d="M170.6884,328.458h-9.5859a1.0029,1.0029,0,0,0-1,1v.1836a1.0029,1.0029,0,0,1,1-1h9.5859a1.0029,1.0029,0,0,1,1,1v-.1836A1.0029,1.0029,0,0,0,170.6884,328.458Z"/><path class="cls-10" d="M223.9973,278.5288h9.5859a1.0029,1.0029,0,0,1,1,1v-.1836a1.0029,1.0029,0,0,0-1-1h-9.5859a1.0029,1.0029,0,0,0-1,1v.1836A1.0029,1.0029,0,0,1,223.9973,278.5288Z"/><path class="cls-10" d="M186.4121,286.8967h-9.5859a1.0029,1.0029,0,0,0-1,1v.1836a1.0029,1.0029,0,0,1,1-1h9.5859a1.0029,1.0029,0,0,1,1,1v-.1836A1.0029,1.0029,0,0,0,186.4121,286.8967Z"/><path class="cls-10" d="M186.4121,299.9824h-25.31a1.003,1.003,0,0,0-1,1v.1836a1.003,1.003,0,0,1,1-1h25.31a1.003,1.003,0,0,1,1,1v-.1836A1.003,1.003,0,0,0,186.4121,299.9824Z"/><path class="cls-10" d="M170.6884,314.22h-9.5859a1.003,1.003,0,0,0-1,1v.1836a1.0029,1.0029,0,0,1,1-1h9.5859a1.0029,1.0029,0,0,1,1,1V315.22A1.003,1.003,0,0,0,170.6884,314.22Z"/><path class="cls-10" d="M186.4121,342.6958h-9.5859a1.0029,1.0029,0,0,0-1,1v.1836a1.0029,1.0029,0,0,1,1-1h9.5859a1.0029,1.0029,0,0,1,1,1v-.1836A1.0029,1.0029,0,0,0,186.4121,342.6958Z"/><path class="cls-10" d="M186.4121,328.458h-9.5859a1.0029,1.0029,0,0,0-1,1v.1836a1.0029,1.0029,0,0,1,1-1h9.5859a1.0029,1.0029,0,0,1,1,1v-.1836A1.0029,1.0029,0,0,0,186.4121,328.458Z"/><path class="cls-10" d="M271.1685,328.6416h9.5858a1.0029,1.0029,0,0,1,1,1v-.1836a1.0029,1.0029,0,0,0-1-1h-9.5858a1.0029,1.0029,0,0,0-1,1v.1836A1.0029,1.0029,0,0,1,271.1685,328.6416Z"/><path class="cls-10" d="M271.1685,300.166h9.5858a1.003,1.003,0,0,1,1,1v-.1836a1.003,1.003,0,0,0-1-1h-9.5858a1.0029,1.0029,0,0,0-1,1v.1836A1.0029,1.0029,0,0,1,271.1685,300.166Z"/><path class="cls-10" d="M271.1685,314.4038h9.5858a1.0029,1.0029,0,0,1,1,1V315.22a1.003,1.003,0,0,0-1-1h-9.5858a1.0029,1.0029,0,0,0-1,1v.1836A1.0029,1.0029,0,0,1,271.1685,314.4038Z"/><path class="cls-10" d="M186.4121,278.3452h-9.5859a1.0029,1.0029,0,0,0-1,1v.1836a1.0029,1.0029,0,0,1,1-1h9.5859a1.0029,1.0029,0,0,1,1,1v-.1836A1.0029,1.0029,0,0,0,186.4121,278.3452Z"/><path class="cls-10" d="M255.4448,278.5288h9.5858a1.0029,1.0029,0,0,1,1,1v-.1836a1.0029,1.0029,0,0,0-1-1h-9.5858a1.0029,1.0029,0,0,0-1,1v.1836A1.0029,1.0029,0,0,1,255.4448,278.5288Z"/><path class="cls-10" d="M255.4448,287.08h9.5858a1.0029,1.0029,0,0,1,1,1v-.1836a1.0029,1.0029,0,0,0-1-1h-9.5858a1.0029,1.0029,0,0,0-1,1v.1836A1.0029,1.0029,0,0,1,255.4448,287.08Z"/><path class="cls-10" d="M318.34,278.5288h9.5859a1.0029,1.0029,0,0,1,1,1v-.1836a1.0029,1.0029,0,0,0-1-1H318.34a1.0029,1.0029,0,0,0-1,1v.1836A1.0029,1.0029,0,0,1,318.34,278.5288Z"/><path class="cls-10" d="M271.1685,287.08h9.5858a1.0029,1.0029,0,0,1,1,1v-.1836a1.0029,1.0029,0,0,0-1-1h-9.5858a1.0029,1.0029,0,0,0-1,1v.1836A1.0029,1.0029,0,0,1,271.1685,287.08Z"/><path class="cls-10" d="M271.1685,278.5288h9.5858a1.0029,1.0029,0,0,1,1,1v-.1836a1.0029,1.0029,0,0,0-1-1h-9.5858a1.0029,1.0029,0,0,0-1,1v.1836A1.0029,1.0029,0,0,1,271.1685,278.5288Z"/><path class="cls-10" d="M255.4448,300.166h9.5858a1.003,1.003,0,0,1,1,1v-.1836a1.003,1.003,0,0,0-1-1h-9.5858a1.0029,1.0029,0,0,0-1,1v.1836A1.0029,1.0029,0,0,1,255.4448,300.166Z"/><path class="cls-10" d="M239.721,287.08h9.5859a1.0029,1.0029,0,0,1,1,1v-.1836a1.0029,1.0029,0,0,0-1-1H239.721a1.0029,1.0029,0,0,0-1,1v.1836A1.0029,1.0029,0,0,1,239.721,287.08Z"/><path class="cls-10" d="M239.721,300.166h9.5859a1.003,1.003,0,0,1,1,1v-.1836a1.003,1.003,0,0,0-1-1H239.721a1.003,1.003,0,0,0-1,1v.1836A1.003,1.003,0,0,1,239.721,300.166Z"/><path class="cls-10" d="M239.721,314.4038h9.5859a1.0029,1.0029,0,0,1,1,1V315.22a1.003,1.003,0,0,0-1-1H239.721a1.003,1.003,0,0,0-1,1v.1836A1.0029,1.0029,0,0,1,239.721,314.4038Z"/><path class="cls-10" d="M255.4448,314.4038h9.5858a1.0029,1.0029,0,0,1,1,1V315.22a1.003,1.003,0,0,0-1-1h-9.5858a1.0029,1.0029,0,0,0-1,1v.1836A1.0029,1.0029,0,0,1,255.4448,314.4038Z"/><path class="cls-10" d="M239.721,328.6416h9.5859a1.0029,1.0029,0,0,1,1,1v-.1836a1.0029,1.0029,0,0,0-1-1H239.721a1.0029,1.0029,0,0,0-1,1v.1836A1.0029,1.0029,0,0,1,239.721,328.6416Z"/><path class="cls-10" d="M239.721,278.5288h9.5859a1.0029,1.0029,0,0,1,1,1v-.1836a1.0029,1.0029,0,0,0-1-1H239.721a1.0029,1.0029,0,0,0-1,1v.1836A1.0029,1.0029,0,0,1,239.721,278.5288Z"/><path class="cls-10" d="M255.4448,328.6416h9.5858a1.0029,1.0029,0,0,1,1,1v-.1836a1.0029,1.0029,0,0,0-1-1h-9.5858a1.0029,1.0029,0,0,0-1,1v.1836A1.0029,1.0029,0,0,1,255.4448,328.6416Z"/><path class="cls-10" d="M296.478,342.6958H223.9973a1.0029,1.0029,0,0,0-1,1v.1836a1.0029,1.0029,0,0,1,1-1H296.478a1.0029,1.0029,0,0,1,1,1v-.1836A1.0029,1.0029,0,0,0,296.478,342.6958Z"/><path class="cls-10" d="M327.9254,342.6958H318.34a1.0029,1.0029,0,0,0-1,1v.1836a1.0029,1.0029,0,0,1,1-1h9.5859a1.0029,1.0029,0,0,1,1,1v-.1836A1.0029,1.0029,0,0,0,327.9254,342.6958Z"/><path class="cls-10" d="M312.2017,278.3452h-9.5859a1.0029,1.0029,0,0,0-1,1v.1836a1.0029,1.0029,0,0,1,1-1h9.5859a1.0029,1.0029,0,0,1,1,1v-.1836A1.0029,1.0029,0,0,0,312.2017,278.3452Z"/><path class="cls-10" d="M312.2017,299.9824h-9.5859a1.003,1.003,0,0,0-1,1v.1836a1.003,1.003,0,0,1,1-1h9.5859a1.003,1.003,0,0,1,1,1v-.1836A1.003,1.003,0,0,0,312.2017,299.9824Z"/><path class="cls-10" d="M312.2017,286.8967h-9.5859a1.0029,1.0029,0,0,0-1,1v.1836a1.0029,1.0029,0,0,1,1-1h9.5859a1.0029,1.0029,0,0,1,1,1v-.1836A1.0029,1.0029,0,0,0,312.2017,286.8967Z"/><path class="cls-10" d="M312.2017,314.22h-9.5859a1.003,1.003,0,0,0-1,1v.1836a1.0029,1.0029,0,0,1,1-1h9.5859a1.0029,1.0029,0,0,1,1,1V315.22A1.003,1.003,0,0,0,312.2017,314.22Z"/><path class="cls-10" d="M312.2017,342.6958h-9.5859a1.0029,1.0029,0,0,0-1,1v.1836a1.0029,1.0029,0,0,1,1-1h9.5859a1.0029,1.0029,0,0,1,1,1v-.1836A1.0029,1.0029,0,0,0,312.2017,342.6958Z"/><path class="cls-10" d="M312.2017,328.458h-9.5859a1.0029,1.0029,0,0,0-1,1v.1836a1.0029,1.0029,0,0,1,1-1h9.5859a1.0029,1.0029,0,0,1,1,1v-.1836A1.0029,1.0029,0,0,0,312.2017,328.458Z"/><path class="cls-10" d="M343.6492,278.3452h-9.586a1.0029,1.0029,0,0,0-1,1v.1836a1.0029,1.0029,0,0,1,1-1h9.586a1.0029,1.0029,0,0,1,1,1v-.1836A1.0029,1.0029,0,0,0,343.6492,278.3452Z"/><path class="cls-10" d="M327.9254,328.458H318.34a1.0029,1.0029,0,0,0-1,1v.1836a1.0029,1.0029,0,0,1,1-1h9.5859a1.0029,1.0029,0,0,1,1,1v-.1836A1.0029,1.0029,0,0,0,327.9254,328.458Z"/><path class="cls-10" d="M296.478,278.3452h-9.5858a1.0029,1.0029,0,0,0-1,1v.1836a1.0029,1.0029,0,0,1,1-1h9.5858a1.0029,1.0029,0,0,1,1,1v-.1836A1.0029,1.0029,0,0,0,296.478,278.3452Z"/><path class="cls-10" d="M343.6492,299.9824H318.34a1.003,1.003,0,0,0-1,1v.1836a1.003,1.003,0,0,1,1-1h25.31a1.003,1.003,0,0,1,1,1v-.1836A1.003,1.003,0,0,0,343.6492,299.9824Z"/><path class="cls-10" d="M343.6492,286.8967H318.34a1.0029,1.0029,0,0,0-1,1v.1836a1.0029,1.0029,0,0,1,1-1h25.31a1.0029,1.0029,0,0,1,1,1v-.1836A1.0029,1.0029,0,0,0,343.6492,286.8967Z"/><path class="cls-10" d="M343.6492,328.458h-9.586a1.0029,1.0029,0,0,0-1,1v.1836a1.0029,1.0029,0,0,1,1-1h9.586a1.0029,1.0029,0,0,1,1,1v-.1836A1.0029,1.0029,0,0,0,343.6492,328.458Z"/><path class="cls-10" d="M327.9254,314.22H318.34a1.003,1.003,0,0,0-1,1v.1836a1.0029,1.0029,0,0,1,1-1h9.5859a1.0029,1.0029,0,0,1,1,1V315.22A1.003,1.003,0,0,0,327.9254,314.22Z"/><path class="cls-10" d="M343.6492,342.6958h-9.586a1.0029,1.0029,0,0,0-1,1v.1836a1.0029,1.0029,0,0,1,1-1h9.586a1.0029,1.0029,0,0,1,1,1v-.1836A1.0029,1.0029,0,0,0,343.6492,342.6958Z"/><path class="cls-10" d="M217.86,328.458h-9.5859a1.0029,1.0029,0,0,0-1,1v.1836a1.0029,1.0029,0,0,1,1-1H217.86a1.0029,1.0029,0,0,1,1,1v-.1836A1.0029,1.0029,0,0,0,217.86,328.458Z"/><path class="cls-10" d="M202.1358,278.3452H192.55a1.0029,1.0029,0,0,0-1,1v.1836a1.0029,1.0029,0,0,1,1-1h9.5859a1.0029,1.0029,0,0,1,1,1v-.1836A1.0029,1.0029,0,0,0,202.1358,278.3452Z"/><path class="cls-10" d="M217.86,342.6958h-9.5859a1.0029,1.0029,0,0,0-1,1v.1836a1.0029,1.0029,0,0,1,1-1H217.86a1.0029,1.0029,0,0,1,1,1v-.1836A1.0029,1.0029,0,0,0,217.86,342.6958Z"/><path class="cls-10" d="M202.1358,342.6958H192.55a1.0029,1.0029,0,0,0-1,1v.1836a1.0029,1.0029,0,0,1,1-1h9.5859a1.0029,1.0029,0,0,1,1,1v-.1836A1.0029,1.0029,0,0,0,202.1358,342.6958Z"/><path class="cls-10" d="M202.1358,286.8967H192.55a1.0029,1.0029,0,0,0-1,1v.1836a1.0029,1.0029,0,0,1,1-1h9.5859a1.0029,1.0029,0,0,1,1,1v-.1836A1.0029,1.0029,0,0,0,202.1358,286.8967Z"/><path class="cls-10" d="M202.1358,328.458H192.55a1.0029,1.0029,0,0,0-1,1v.1836a1.0029,1.0029,0,0,1,1-1h9.5859a1.0029,1.0029,0,0,1,1,1v-.1836A1.0029,1.0029,0,0,0,202.1358,328.458Z"/><path class="cls-10" d="M202.1358,299.9824H192.55a1.003,1.003,0,0,0-1,1v.1836a1.003,1.003,0,0,1,1-1h9.5859a1.003,1.003,0,0,1,1,1v-.1836A1.003,1.003,0,0,0,202.1358,299.9824Z"/><path class="cls-10" d="M202.1358,314.22H192.55a1.003,1.003,0,0,0-1,1v.1836a1.0029,1.0029,0,0,1,1-1h9.5859a1.0029,1.0029,0,0,1,1,1V315.22A1.003,1.003,0,0,0,202.1358,314.22Z"/><path class="cls-10" d="M296.478,314.22h-9.5858a1.0029,1.0029,0,0,0-1,1v.1836a1.0029,1.0029,0,0,1,1-1h9.5858a1.0029,1.0029,0,0,1,1,1V315.22A1.003,1.003,0,0,0,296.478,314.22Z"/><path class="cls-10" d="M296.478,328.458h-9.5858a1.0029,1.0029,0,0,0-1,1v.1836a1.0029,1.0029,0,0,1,1-1h9.5858a1.0029,1.0029,0,0,1,1,1v-.1836A1.0029,1.0029,0,0,0,296.478,328.458Z"/><path class="cls-10" d="M296.478,286.8967h-9.5858a1.0029,1.0029,0,0,0-1,1v.1836a1.0029,1.0029,0,0,1,1-1h9.5858a1.0029,1.0029,0,0,1,1,1v-.1836A1.0029,1.0029,0,0,0,296.478,286.8967Z"/><path class="cls-10" d="M296.478,299.9824h-9.5858a1.0029,1.0029,0,0,0-1,1v.1836a1.0029,1.0029,0,0,1,1-1h9.5858a1.003,1.003,0,0,1,1,1v-.1836A1.003,1.003,0,0,0,296.478,299.9824Z"/><path class="cls-10" d="M217.86,278.3452h-9.5859a1.0029,1.0029,0,0,0-1,1v.1836a1.0029,1.0029,0,0,1,1-1H217.86a1.0029,1.0029,0,0,1,1,1v-.1836A1.0029,1.0029,0,0,0,217.86,278.3452Z"/><path class="cls-10" d="M217.86,299.9824h-9.5859a1.003,1.003,0,0,0-1,1v.1836a1.003,1.003,0,0,1,1-1H217.86a1.003,1.003,0,0,1,1,1v-.1836A1.003,1.003,0,0,0,217.86,299.9824Z"/><path class="cls-10" d="M217.86,286.8967h-9.5859a1.0029,1.0029,0,0,0-1,1v.1836a1.0029,1.0029,0,0,1,1-1H217.86a1.0029,1.0029,0,0,1,1,1v-.1836A1.0029,1.0029,0,0,0,217.86,286.8967Z"/><path class="cls-10" d="M217.86,314.22h-9.5859a1.003,1.003,0,0,0-1,1v.1836a1.0029,1.0029,0,0,1,1-1H217.86a1.0029,1.0029,0,0,1,1,1V315.22A1.003,1.003,0,0,0,217.86,314.22Z"/><rect class="cls-7" x="221.9198" y="362.847" width="59.4335" height="34.8122" rx="4.812"/><rect class="cls-8" x="221.9198" y="362.847" width="59.4335" height="34.5031" rx="4.812"/><rect class="cls-7" x="221.9198" y="390.9931" width="59.4335" height="0.6867"/><rect class="cls-11" x="221.9198" y="390.831" width="59.4335" height="0.6867"/><path class="cls-12" d="M364.7863,254.013H138.9653a5.0989,5.0989,0,0,1-4.795-3.3648l-20.451-52.62a6.0926,6.0926,0,0,1,6.1006-7.151H383.9318a6.3394,6.3394,0,0,1,6.0367,7.8078l-20.3871,51.9627A5.099,5.099,0,0,1,364.7863,254.013Z"/><path class="cls-2" d="M119.82,191.0443H383.9318A6.2312,6.2312,0,0,1,390.1,197.33a6.2419,6.2419,0,0,0-6.1682-6.452H119.82a6.0636,6.0636,0,0,0-6.1638,6.4024A6.0582,6.0582,0,0,1,119.82,191.0443Z"/><path class="cls-13" d="M365.6086,256.3609H138.143a5.1363,5.1363,0,0,1-4.83-3.3893l-19.2848-53.3227a5.1362,5.1362,0,0,1,4.83-6.8831H384.8935a5.1363,5.1363,0,0,1,4.83,6.8831l-19.2849,53.3227A5.1361,5.1361,0,0,1,365.6086,256.3609Z"/><path class="cls-9" d="M384.8935,192.7658H118.8582a5.1362,5.1362,0,0,0-4.83,6.883L132.4768,250.66H371.2749l18.4486-51.0107A5.1362,5.1362,0,0,0,384.8935,192.7658Z"/><polygon class="cls-14" points="119.475 198.985 137 248.89 365.74 248.89 384.195 198.985 119.475 198.985"/><path class="cls-2" d="M376.2834,233.5662l13.48-34.3583a5.132,5.132,0,0,0-4.87-6.7465H118.8582a5.14,5.14,0,0,0-5.1162,5.6255l12.8837,33.1495-11.6571-32.2321a4.1361,4.1361,0,0,1,3.89-5.5429H384.8935a4.1362,4.1362,0,0,1,3.89,5.5429Z"/><path class="cls-15" d="M384.8935,193.7659a4.1362,4.1362,0,0,1,3.89,5.5428l-19.2848,53.3228a4.1478,4.1478,0,0,1-3.89,2.7294H138.143a4.1478,4.1478,0,0,1-3.89-2.7294l-19.2848-53.3228a4.136,4.136,0,0,1,3.89-5.5428H384.8935m0-1H118.8582a5.1361,5.1361,0,0,0-4.83,6.883l19.2848,53.3227a5.1362,5.1362,0,0,0,4.83,3.3893H365.6086a5.1364,5.1364,0,0,0,4.83-3.3893l19.2848-53.3227a5.1362,5.1362,0,0,0-4.83-6.883Z"/><ellipse class="cls-16" cx="352.4208" cy="265.7094" rx="5.125" ry="5.2487"/><circle class="cls-17" cx="352.4208" cy="265.5857" r="5.125"/><circle class="cls-5" cx="352.4208" cy="265.5857" r="4.215"/><path class="cls-16" d="M352.4208,269.6972a4.2119,4.2119,0,0,1-4.21-4.1632c0,.0177-.0052.034-.0052.0517a4.2151,4.2151,0,0,0,8.43,0c0-.0177-.005-.034-.0052-.0517A4.2119,4.2119,0,0,1,352.4208,269.6972Z"/><polygon class="cls-18" points="124.179 212.379 379.242 212.379 384.195 198.985 119.475 198.985 124.179 212.379"/><polygon class="cls-19" points="384.028 199.438 384.195 198.985 119.475 198.985 119.634 199.438 384.028 199.438"/><ellipse class="cls-20" cx="129.2449" cy="206.0094" rx="3.0131" ry="4.1329" transform="translate(-113.3118 188.3915) rotate(-53.7426)"/><ellipse class="cls-21" cx="129.2188" cy="205.9282" rx="2.9762" ry="4.0854" transform="translate(-113.7423 197.3362) rotate(-55.8666)"/><ellipse class="cls-22" cx="129.2188" cy="205.9282" rx="2.0979" ry="2.8798" transform="translate(-113.7423 197.3362) rotate(-55.8666)"/><path class="cls-23" d="M128.487,203.6507a3.6817,3.6817,0,0,1,3.2887,2.3247c-.0048-.0161-.0048-.0311-.01-.0473a3.6783,3.6783,0,0,0-3.309-2.372,1.7281,1.7281,0,0,0-1.7849,2.372c.0052.0162.0148.0312.02.0473A1.7225,1.7225,0,0,1,128.487,203.6507Z"/><ellipse class="cls-20" cx="138.5326" cy="206.0094" rx="3.0131" ry="4.1329" transform="translate(-109.5169 195.8808) rotate(-53.7426)"/><ellipse class="cls-21" cx="138.5065" cy="205.9282" rx="2.9762" ry="4.0854" transform="translate(-109.6661 205.0239) rotate(-55.8666)"/><ellipse class="cls-24" cx="138.5065" cy="205.9282" rx="2.0979" ry="2.8798" transform="translate(-109.6661 205.0239) rotate(-55.8666)"/><path class="cls-25" d="M137.7747,203.6507a3.6816,3.6816,0,0,1,3.2887,2.3247c-.0048-.0161-.0048-.0311-.01-.0473a3.6783,3.6783,0,0,0-3.309-2.372,1.7281,1.7281,0,0,0-1.7849,2.372c.0052.0162.0148.0312.02.0473A1.7225,1.7225,0,0,1,137.7747,203.6507Z"/><ellipse class="cls-20" cx="147.8203" cy="206.0094" rx="3.0131" ry="4.1329" transform="matrix(0.5914, -0.8064, 0.8064, 0.5914, -105.7221, 203.3701)"/><ellipse class="cls-21" cx="147.7942" cy="205.9282" rx="2.9762" ry="4.0854" transform="translate(-105.5899 212.7116) rotate(-55.8666)"/><ellipse class="cls-26" cx="147.7942" cy="205.9282" rx="2.0979" ry="2.8798" transform="translate(-105.5899 212.7116) rotate(-55.8666)"/><path class="cls-27" d="M147.0625,203.6507a3.6816,3.6816,0,0,1,3.2886,2.3247c-.0048-.0161-.0048-.0311-.01-.0473a3.6783,3.6783,0,0,0-3.309-2.372,1.7281,1.7281,0,0,0-1.7849,2.372c.0053.0162.0148.0312.02.0473A1.7226,1.7226,0,0,1,147.0625,203.6507Z"/><line class="cls-28" x1="255.4135" y1="224.5634" x2="255.4135" y2="219.7916"/><path class="cls-28" d="M239.9565,221.2914H135.8472a1.5,1.5,0,0,1,0-3H239.9565a1.5,1.5,0,0,1,0,3Z"/><path class="cls-29" d="M260.2373,221.2914H248.04a1.5,1.5,0,0,1,0-3h12.1973a1.5,1.5,0,0,1,0,3Z"/><path class="cls-28" d="M301.6162,221.2914H267.83a1.5,1.5,0,0,1,0-3h33.7861a1.5,1.5,0,0,1,0,3Z"/><path class="cls-30" d="M323.1328,221.2914h-6.8017a1.5,1.5,0,0,1,0-3h6.8017a1.5,1.5,0,0,1,0,3Z"/><path class="cls-30" d="M334.7987,221.2914H327.997a1.5,1.5,0,0,1,0-3h6.8017a1.5,1.5,0,0,1,0,3Z"/><path class="cls-29" d="M156.0566,228.26h-17.601a1.5,1.5,0,0,1,0-3h17.601a1.5,1.5,0,0,1,0,3Z"/><path class="cls-28" d="M201.2119,228.26H165.8955a1.5,1.5,0,0,1,0-3h35.3164a1.5,1.5,0,0,1,0,3Z"/><path class="cls-29" d="M270.168,228.26H211.2466a1.5,1.5,0,0,1,0-3H270.168a1.5,1.5,0,0,1,0,3Z"/><path class="cls-31" d="M178.9131,236.9008h-37.85a1.5,1.5,0,1,1,0-3h37.85a1.5,1.5,0,0,1,0,3Z"/><path class="cls-31" d="M191.55,236.9008h-4.1377a1.5,1.5,0,0,1,0-3H191.55a1.5,1.5,0,0,1,0,3Z"/><path class="cls-31" d="M207.2734,236.9008h-6.0615a1.5,1.5,0,0,1,0-3h6.0615a1.5,1.5,0,1,1,0,3Z"/><path class="cls-31" d="M222.9971,236.9008h-8.6846a1.5,1.5,0,0,1,0-3h8.6846a1.5,1.5,0,0,1,0,3Z"/><path class="cls-31" d="M288.457,228.26H277.3076a1.5,1.5,0,0,1,0-3H288.457a1.5,1.5,0,0,1,0,3Z"/><path class="cls-31" d="M319.7314,228.26H295.4258a1.5,1.5,0,0,1,0-3h24.3056a1.5,1.5,0,0,1,0,3Z"/><path class="cls-32" d="M170.272,244.7054H143.2344a1.5,1.5,0,0,1,0-3H170.272a1.5,1.5,0,0,1,0,3Z"/><path class="cls-32" d="M362.3223,238.5731H301.6162a1.5,1.5,0,0,1,0-3h60.7061a1.5,1.5,0,0,1,0,3Z"/><path class="cls-32" d="M358.9775,244.7054H349.501a1.5,1.5,0,0,1,0-3h9.4765a1.5,1.5,0,0,1,0,3Z"/><path class="cls-32" d="M344.6494,244.7054H336.4a1.5,1.5,0,0,1,0-3h8.249a1.5,1.5,0,0,1,0,3Z"/><g class="cls-33"><polygon class="cls-14" points="290.972 198.985 200.454 198.985 150.549 248.89 241.067 248.89 290.972 198.985"/><polygon class="cls-14" points="356.844 198.985 319.385 198.985 269.481 248.89 306.939 248.89 356.844 198.985"/><polygon class="cls-14" points="383.726 200.253 384.195 198.985 374.678 198.985 324.774 248.89 335.09 248.89 383.726 200.253"/></g><path class="cls-34" d="M386.0352,322.01h56.4685a4.9114,4.9114,0,0,1,4.9114,4.9114V401.352a4.9114,4.9114,0,0,1-4.9114,4.9114H386.0352a0,0,0,0,1,0,0V322.01A0,0,0,0,1,386.0352,322.01Z"/><path class="cls-35" d="M442.5037,322.01h-.1984a4.9114,4.9114,0,0,1,4.9114,4.9114v74.431a4.9113,4.9113,0,0,1-4.9114,4.9114h.1984a4.9113,4.9113,0,0,0,4.9114-4.9114v-74.431A4.9114,4.9114,0,0,0,442.5037,322.01Z"/><rect class="cls-36" x="386.0352" y="322.0095" width="10.3891" height="84.2538"/><rect class="cls-37" x="396.4243" y="322.0095" width="1.1277" height="84.2538" transform="translate(793.9763 728.2729) rotate(180)"/><rect class="cls-38" x="430.7736" y="322.0095" width="6.9949" height="84.2538"/><rect class="cls-39" x="431.6401" y="321.2192" width="6.9949" height="85.8344"/><rect class="cls-2" x="431.6401" y="321.2192" width="0.5289" height="85.8344"/><rect class="cls-2" x="432.7982" y="321.2192" width="0.0694" height="85.8344"/><rect class="cls-40" x="432.8676" y="321.2192" width="0.1521" height="85.8344"/><rect class="cls-2" x="433.7888" y="321.2192" width="0.0694" height="85.8344"/><rect class="cls-40" x="433.8583" y="321.2192" width="0.1521" height="85.8344"/><rect class="cls-2" x="434.7795" y="321.2192" width="0.0694" height="85.8344"/><rect class="cls-40" x="434.8489" y="321.2192" width="0.1521" height="85.8344"/><rect class="cls-2" x="435.7701" y="321.2192" width="0.0694" height="85.8344"/><rect class="cls-40" x="435.8395" y="321.2192" width="0.1521" height="85.8344"/><rect class="cls-2" x="436.7607" y="321.2192" width="0.0694" height="85.8344"/><rect class="cls-40" x="436.8301" y="321.2192" width="0.1521" height="85.8344"/><rect class="cls-2" x="437.7513" y="321.2192" width="0.0694" height="85.8344"/><rect class="cls-40" x="437.8207" y="321.2192" width="0.1521" height="85.8344"/><rect class="cls-41" x="400.3185" y="393.2638" width="17.2413" height="8.832"/><rect class="cls-41" x="400.3185" y="390.0458" width="17.2413" height="2.0515"/><rect class="cls-42" x="400.3185" y="386.8279" width="8.6206" height="2.0515"/><circle class="cls-43" cx="79.2488" cy="333.8639" r="36.8468"/><path class="cls-44" d="M108.89,329.9629a29.9882,29.9882,0,1,0-.0214,11.6624h3.86a5.7741,5.7741,0,0,0,2.6763-.6593,37.0114,37.0114,0,0,0,.6907-7.1021c0-.98-.05-1.9483-.1249-2.9091a5.7877,5.7877,0,0,0-3.2421-.9919Z"/><path class="cls-45" d="M79.2488,297.6271a36.8427,36.8427,0,0,1,36.8391,36.5418c.0008-.1021.0077-.2027.0077-.3051a36.8468,36.8468,0,1,0-73.6936,0c0,.1024.0069.203.0077.3051A36.8427,36.8427,0,0,1,79.2488,297.6271Z"/><rect class="cls-2" x="97.8773" y="328.0924" width="20.6826" height="11.6624" rx="5.8312"/><circle class="cls-46" cx="79.4569" cy="333.8639" r="29.9939"/><path class="cls-2" d="M79.457,304.1668a29.9918,29.9918,0,0,1,29.99,29.8455c0-.05.0038-.0987.0038-.1484a29.9939,29.9939,0,0,0-59.9878,0c0,.05.0035.0987.0037.1484A29.9917,29.9917,0,0,1,79.457,304.1668Z"/><ellipse class="cls-2" cx="79.4569" cy="334.0565" rx="26.3132" ry="26.5059"/><circle class="cls-47" cx="79.4569" cy="333.8639" r="26.3132"/><circle class="cls-48" cx="79.4569" cy="333.8639" r="24.3102"/><circle class="cls-49" cx="79.4569" cy="333.8639" r="23.7682"/><path class="cls-50" d="M79.4569,310.3574a23.7642,23.7642,0,0,1,23.7616,23.6373c0-.0442.0066-.0867.0066-.1309a23.7682,23.7682,0,0,0-47.5364,0c0,.0442.0064.0867.0066.1309A23.7642,23.7642,0,0,1,79.4569,310.3574Z"/><circle class="cls-51" cx="79.4569" cy="333.8639" r="18.4204"/><path class="cls-52" d="M79.4569,315.6053a18.4177,18.4177,0,0,1,18.4163,18.3394c0-.0273.0041-.0536.0041-.0809a18.42,18.42,0,0,0-36.8407,0c0,.0273.0039.0536.0041.0809A18.4177,18.4177,0,0,1,79.4569,315.6053Z"/><circle class="cls-53" cx="79.4569" cy="333.8639" r="11.0528"/><path class="cls-54" d="M79.4569,322.9306a11.0509,11.0509,0,0,1,11.05,10.993c0-.02.003-.04.003-.06a11.0528,11.0528,0,0,0-22.1055,0c0,.02.0028.04.003.06A11.0508,11.0508,0,0,1,79.4569,322.9306Z"/><circle class="cls-55" cx="79.4569" cy="333.8639" r="4.4934"/><path class="cls-56" d="M79.4569,329.5319a4.4888,4.4888,0,0,1,4.4854,4.4127c0-.0276.0081-.0531.0081-.0808a4.4935,4.4935,0,0,0-8.9869,0c0,.0277.0077.0532.0081.0808A4.4888,4.4888,0,0,1,79.4569,329.5319Z"/><circle class="cls-57" cx="73.0279" cy="326.366" r="11.9913"/><circle class="cls-58" cx="69.3898" cy="337.2312" r="5.5737"/><circle class="cls-59" cx="95.7274" cy="341.8429" r="3.4856"/><rect class="cls-60" x="433.6535" y="417.4127" width="15.2131" height="10.0065" rx="5.0033"/><path class="cls-61" d="M441.54,424.102l-1.0486,3.3506-52.6519.1169a1.6732,1.6732,0,0,1-1.6765-1.67h0a1.6733,1.6733,0,0,1,1.67-1.6765Z"/><path class="cls-62" d="M441.5331,420.7554l.0064,3.3466-53.7069.1209a1.6733,1.6733,0,0,1-1.6766-1.67h0a1.6733,1.6733,0,0,1,1.67-1.6765Z"/><path class="cls-63" d="M440.4716,417.4127l1.0615,3.3427-53.707.1209a1.6734,1.6734,0,0,1-1.6765-1.67h0a1.6733,1.6733,0,0,1,1.67-1.6766Z"/><path class="cls-64" d="M384.2424,417.7159l-12.86,4.0372a.8662.8662,0,0,0,.0034,1.6754l12.9432,3.9908,2.3193-4.8632Z"/><path class="cls-65" d="M438.727,424.102l-1.0486,3.3506-52.6519.1169a1.6732,1.6732,0,0,1-1.6765-1.67h0a1.6733,1.6733,0,0,1,1.67-1.6765Z"/><path class="cls-66" d="M438.7205,420.7554l.0065,3.3466-53.7069.1209a1.6733,1.6733,0,0,1-1.6766-1.67h0a1.6733,1.6733,0,0,1,1.67-1.6765Z"/><path class="cls-67" d="M437.6591,417.4127l1.0614,3.3427-53.7069.1209a1.6734,1.6734,0,0,1-1.6765-1.67h0a1.6733,1.6733,0,0,1,1.67-1.6766Z"/><path class="cls-68" d="M371.0718,423.4291l6.2917,1.8424a7.2257,7.2257,0,0,0,.6293-2.6861,5.6723,5.6723,0,0,0-.54-2.392l-6.3848,1.56A.8663.8663,0,0,0,371.0718,423.4291Z"/><path class="cls-69" d="M370.9687,422.54c-.1662,0-.17.2373.1066.25l6.8685.5516a3.0187,3.0187,0,0,0,.0491-.7265Z"/><path class="cls-70" d="M371.0684,421.7537a.9444.9444,0,0,0-.1492.0533l-.0055.0027a.8551.8551,0,0,0-.12.0679l-.0134.0089a.8174.8174,0,0,0-.19.1871l-.0188.0286a.8637.8637,0,0,0-.0444.0744c-.008.0153-.0157.0307-.0227.0465-.0093.0205-.0173.0417-.0249.0628-.0065.0182-.0137.0361-.019.0546l-.0006.0026a.9108.9108,0,0,1,.5317-.2961l6.7575-1.0969a7.76,7.76,0,0,0-.416-1.0651Z"/><path class="cls-69" d="M383.35,425.8994a1.6732,1.6732,0,0,0,1.6765,1.67l52.6519-.1169.5243-1.6753Z"/><path class="cls-69" d="M385.02,424.2229l53.7069-.1209,0-.1741L384.28,424.05A1.6638,1.6638,0,0,0,385.02,424.2229Z"/><path class="cls-69" d="M385.0136,420.8763l53.7069-.1209-.0552-.1742-54.3919.1224A1.6641,1.6641,0,0,0,385.0136,420.8763Z"/><path class="cls-69" d="M383.3371,419.2062a1.6734,1.6734,0,0,0,1.6765,1.67l.12,0a1.6733,1.6733,0,1,1-.0065-3.3466l-.12,0A1.6732,1.6732,0,0,0,383.3371,419.2062Z"/><path class="cls-69" d="M383.3436,422.5694a1.6732,1.6732,0,0,0,1.6765,1.67l.12,0a1.6733,1.6733,0,1,1-.0064-3.3466l-.12,0A1.6733,1.6733,0,0,0,383.3436,422.5694Z"/><path class="cls-69" d="M383.35,425.8994a1.6732,1.6732,0,0,0,1.6765,1.67l.12,0a1.6733,1.6733,0,0,1-.0064-3.3466l-.12,0A1.6733,1.6733,0,0,0,383.35,425.8994Z"/><rect class="cls-71" x="73.4104" y="73.4131" width="206.3332" height="133.9487" rx="5.0696"/><path class="cls-72" d="M274.6741,206.68H78.48a5.07,5.07,0,0,1-5.07-5.07v.6818a5.07,5.07,0,0,0,5.07,5.0695H274.6741a5.07,5.07,0,0,0,5.07-5.0695v-.6818A5.07,5.07,0,0,1,274.6741,206.68Z"/><path class="cls-73" d="M273.8752,72.1659H79.2789A5.8685,5.8685,0,0,0,73.41,78.0344v1.2472a5.8685,5.8685,0,0,1,5.8685-5.8685H273.8752a5.8686,5.8686,0,0,1,5.8685,5.8685V78.0344A5.8686,5.8686,0,0,0,273.8752,72.1659Z"/><path class="cls-73" d="M273.8752,73.4131H79.2789A5.8685,5.8685,0,0,0,73.41,79.2816V95.026H279.7437V79.2816A5.8686,5.8686,0,0,0,273.8752,73.4131Z"/><path class="cls-74" d="M273.8752,73.4131H79.2789A5.8685,5.8685,0,0,0,73.41,79.2816v.2089a5.8685,5.8685,0,0,1,5.8685-5.8685H273.8752a5.8686,5.8686,0,0,1,5.8685,5.8685v-.2089A5.8686,5.8686,0,0,0,273.8752,73.4131Z"/><rect class="cls-74" x="73.4104" y="94.1538" width="206.3333" height="0.8722"/><rect class="cls-75" x="81.7636" y="101.5206" width="190.0878" height="98.7861" rx="4.1802"/><circle class="cls-76" cx="84.9895" cy="84.2196" r="5.8394"/><path class="cls-74" d="M84.99,89.8383a5.8331,5.8331,0,0,1-5.8283-5.7291c-.0007.0375-.0111.0725-.0111.11a5.8394,5.8394,0,1,0,11.6787,0c0-.0378-.01-.0728-.0111-.11A5.833,5.833,0,0,1,84.99,89.8383Z"/><circle class="cls-73" cx="84.9895" cy="84.2196" r="4.53"/><circle class="cls-77" cx="84.9895" cy="84.2196" r="3.6993"/><path class="cls-78" d="M84.99,80.6237a3.6963,3.6963,0,0,1,3.6941,3.6476c0-.0177.0052-.0341.0052-.0518a3.6994,3.6994,0,0,0-7.3987,0c0,.0177.005.0341.0053.0518A3.6963,3.6963,0,0,1,84.99,80.6237Z"/><circle class="cls-79" cx="84.9895" cy="84.2196" r="2.2319"/><path class="cls-78" d="M84.99,82.1045a2.2286,2.2286,0,0,1,2.226,2.1734c0-.02.0059-.0384.0059-.0584a2.2319,2.2319,0,0,0-4.4638,0c0,.02.0054.0385.0059.0584A2.2286,2.2286,0,0,1,84.99,82.1045Z"/><circle class="cls-76" cx="101.9076" cy="84.2196" r="5.8394"/><path class="cls-74" d="M101.9076,89.8383a5.8333,5.8333,0,0,1-5.8283-5.7291c-.0007.0375-.011.0725-.011.11a5.8394,5.8394,0,1,0,11.6787,0c0-.0378-.01-.0728-.0111-.11A5.8332,5.8332,0,0,1,101.9076,89.8383Z"/><circle class="cls-73" cx="101.9076" cy="84.2196" r="4.53"/><circle class="cls-80" cx="101.9076" cy="84.2196" r="3.6993"/><path class="cls-81" d="M101.9076,80.6237a3.6964,3.6964,0,0,1,3.6942,3.6476c0-.0177.0052-.0341.0052-.0518a3.6994,3.6994,0,0,0-7.3987,0c0,.0177.0049.0341.0052.0518A3.6963,3.6963,0,0,1,101.9076,80.6237Z"/><circle class="cls-82" cx="101.9076" cy="84.2196" r="2.2319"/><path class="cls-83" d="M101.9076,82.1045a2.2287,2.2287,0,0,1,2.2261,2.1734c.0005-.02.0058-.0384.0058-.0584a2.2319,2.2319,0,0,0-4.4637,0c0,.02.0053.0385.0058.0584A2.2286,2.2286,0,0,1,101.9076,82.1045Z"/><circle class="cls-76" cx="118.8258" cy="84.2196" r="5.8394"/><path class="cls-74" d="M118.8258,89.8383a5.8331,5.8331,0,0,1-5.8283-5.7291c-.0007.0375-.0111.0725-.0111.11a5.8394,5.8394,0,1,0,11.6787,0c0-.0378-.01-.0728-.0111-.11A5.833,5.833,0,0,1,118.8258,89.8383Z"/><circle class="cls-73" cx="118.8258" cy="84.2196" r="4.53"/><circle class="cls-84" cx="118.8258" cy="84.2196" r="3.6993"/><path class="cls-85" d="M118.8258,80.6237a3.6963,3.6963,0,0,1,3.6941,3.6476c0-.0177.0053-.0341.0053-.0518a3.6994,3.6994,0,0,0-7.3988,0c0,.0177.005.0341.0053.0518A3.6963,3.6963,0,0,1,118.8258,80.6237Z"/><circle class="cls-86" cx="118.8258" cy="84.2196" r="2.2319"/><path class="cls-85" d="M118.8258,82.1045a2.2286,2.2286,0,0,1,2.226,2.1734c.0005-.02.0059-.0384.0059-.0584a2.2319,2.2319,0,0,0-4.4638,0c0,.02.0054.0385.0059.0584A2.2286,2.2286,0,0,1,118.8258,82.1045Z"/><polyline class="cls-87" points="91.791 107.313 87.248 111.855 91.785 116.392"/><polyline class="cls-87" points="103.205 107.313 107.747 111.855 103.21 116.392"/><line class="cls-87" x1="95.5758" y1="117.1705" x2="99.1796" y2="107.3126"/><circle class="cls-88" cx="112.5724" cy="117.2505" r="1.2811"/><circle class="cls-88" cx="117.875" cy="117.2505" r="1.2811"/><circle class="cls-88" cx="123.1777" cy="117.2505" r="1.2811"/><line class="cls-87" x1="89.5194" y1="126.4822" x2="226.0469" y2="126.4822"/><line class="cls-87" x1="234.3268" y1="126.4822" x2="244.8476" y2="126.4822"/><line class="cls-87" x1="250.7564" y1="126.4822" x2="264.1856" y2="126.4822"/><line class="cls-89" x1="89.5194" y1="137.2255" x2="174.9321" y2="137.2255"/><line class="cls-89" x1="187.6395" y1="137.2255" x2="202.9488" y2="137.2255"/><line class="cls-89" x1="202.9488" y1="143.4029" x2="161.3882" y2="143.4029"/><line class="cls-89" x1="155.6782" y1="143.4029" x2="147.3026" y2="143.4029"/><line class="cls-89" x1="140.6496" y1="143.4029" x2="132.274" y2="143.4029"/><line class="cls-89" x1="125.6211" y1="143.4029" x2="117.2454" y2="143.4029"/><line class="cls-89" x1="110.5925" y1="143.4029" x2="102.2169" y2="143.4029"/><line class="cls-90" x1="231.7374" y1="150.9137" x2="102.2169" y2="150.9137"/><line class="cls-89" x1="92.5417" y1="143.4029" x2="89.5194" y2="143.4029"/><line class="cls-89" x1="92.5417" y1="150.9137" x2="89.5194" y2="150.9137"/><line class="cls-89" x1="92.5417" y1="158.4245" x2="89.5194" y2="158.4245"/><line class="cls-89" x1="92.5417" y1="165.9353" x2="89.5194" y2="165.9353"/><line class="cls-90" x1="239.5872" y1="150.9137" x2="257.471" y2="150.9137"/><line class="cls-90" x1="101.9076" y1="158.4245" x2="137.7446" y2="158.4245"/><line class="cls-90" x1="101.9076" y1="166.1194" x2="137.7446" y2="166.1194"/><line class="cls-90" x1="101.9076" y1="173.8144" x2="137.7446" y2="173.8144"/><line class="cls-90" x1="101.9076" y1="181.5094" x2="137.7446" y2="181.5094"/><line class="cls-91" x1="161.3882" y1="181.5094" x2="234.3268" y2="181.5094"/><line class="cls-91" x1="204.6295" y1="173.8144" x2="234.3268" y2="173.8144"/><line class="cls-91" x1="222.537" y1="165.9353" x2="234.3268" y2="165.9353"/><rect class="cls-71" x="295.9886" y="124.6642" width="101.9108" height="158.6133" rx="5.1794"/><path class="cls-92" d="M392.83,282.6877H301.0582a5.07,5.07,0,0,1-5.07-5.07v.59a5.07,5.07,0,0,0,5.07,5.07H392.83a5.07,5.07,0,0,0,5.07-5.07v-.59A5.07,5.07,0,0,1,392.83,282.6877Z"/><path class="cls-73" d="M393.9968,123.8348H299.8913a3.9027,3.9027,0,0,0-3.9027,3.9027v.8294a3.9027,3.9027,0,0,1,3.9027-3.9027h94.1055a3.9028,3.9028,0,0,1,3.9027,3.9027v-.8294A3.9028,3.9028,0,0,0,393.9968,123.8348Z"/><path class="cls-73" d="M393.9968,124.6642H299.8913a3.9027,3.9027,0,0,0-3.9027,3.9027v10.47H397.9v-10.47A3.9028,3.9028,0,0,0,393.9968,124.6642Z"/><path class="cls-74" d="M393.9968,124.6642H299.8913a3.9027,3.9027,0,0,0-3.9027,3.9027v.1389a3.9027,3.9027,0,0,1,3.9027-3.9027h94.1055a3.9028,3.9028,0,0,1,3.9027,3.9027v-.1389A3.9028,3.9028,0,0,0,393.9968,124.6642Z"/><rect class="cls-74" x="295.9886" y="138.4573" width="101.9109" height="0.58"/><rect class="cls-75" x="301.5437" y="143.3563" width="91.1072" height="135.2294" rx="4.1802"/><circle class="cls-76" cx="303.689" cy="131.8507" r="3.8833"/><path class="cls-74" d="M303.689,135.5873a3.8792,3.8792,0,0,1-3.876-3.81c0,.025-.0074.0483-.0074.0734a3.8833,3.8833,0,1,0,7.7666,0c0-.0251-.0069-.0484-.0073-.0734A3.8792,3.8792,0,0,1,303.689,135.5873Z"/><circle class="cls-73" cx="303.689" cy="131.8507" r="3.0125"/><circle class="cls-77" cx="303.689" cy="131.8507" r="2.4601"/><path class="cls-78" d="M303.689,129.4594a2.458,2.458,0,0,1,2.4566,2.4257c0-.0117.0035-.0226.0035-.0344a2.46,2.46,0,0,0-4.92,0c0,.0118.0033.0227.0035.0344A2.4581,2.4581,0,0,1,303.689,129.4594Z"/><circle class="cls-79" cx="303.689" cy="131.8507" r="1.4842"/><path class="cls-78" d="M303.689,130.4442a1.482,1.482,0,0,1,1.48,1.4454c0-.0133.0039-.0256.0039-.0389a1.4843,1.4843,0,0,0-2.9685,0c0,.0133.0036.0256.0039.0389A1.4821,1.4821,0,0,1,303.689,130.4442Z"/><circle class="cls-76" cx="314.9399" cy="131.8507" r="3.8833"/><path class="cls-74" d="M314.94,135.5873a3.8792,3.8792,0,0,1-3.8759-3.81c-.0005.025-.0074.0483-.0074.0734a3.8833,3.8833,0,0,0,7.7666,0c0-.0251-.0069-.0484-.0074-.0734A3.8791,3.8791,0,0,1,314.94,135.5873Z"/><circle class="cls-73" cx="314.9399" cy="131.8507" r="3.0125"/><circle class="cls-80" cx="314.9399" cy="131.8507" r="2.4601"/><path class="cls-81" d="M314.94,129.4594a2.4581,2.4581,0,0,1,2.4567,2.4257c0-.0117.0035-.0226.0035-.0344a2.46,2.46,0,0,0-4.92,0c0,.0118.0033.0227.0035.0344A2.458,2.458,0,0,1,314.94,129.4594Z"/><circle class="cls-82" cx="314.9399" cy="131.8507" r="1.4842"/><path class="cls-83" d="M314.94,130.4442a1.4821,1.4821,0,0,1,1.48,1.4454c0-.0133.0039-.0256.0039-.0389a1.4843,1.4843,0,0,0-2.9685,0c0,.0133.0036.0256.0039.0389A1.482,1.482,0,0,1,314.94,130.4442Z"/><circle class="cls-76" cx="326.1909" cy="131.8507" r="3.8833"/><path class="cls-74" d="M326.1909,135.5873a3.8792,3.8792,0,0,1-3.876-3.81c0,.025-.0073.0483-.0073.0734a3.8833,3.8833,0,0,0,7.7666,0c0-.0251-.0069-.0484-.0074-.0734A3.8791,3.8791,0,0,1,326.1909,135.5873Z"/><circle class="cls-73" cx="326.1909" cy="131.8507" r="3.0125"/><circle class="cls-84" cx="326.1909" cy="131.8507" r="2.4601"/><path class="cls-85" d="M326.1909,129.4594a2.4581,2.4581,0,0,1,2.4567,2.4257c0-.0117.0035-.0226.0035-.0344a2.46,2.46,0,0,0-4.92,0c0,.0118.0033.0227.0035.0344A2.4581,2.4581,0,0,1,326.1909,129.4594Z"/><circle class="cls-86" cx="326.1909" cy="131.8507" r="1.4842"/><path class="cls-85" d="M326.1909,130.4442a1.4822,1.4822,0,0,1,1.48,1.4454c0-.0133.0039-.0256.0039-.0389a1.4843,1.4843,0,0,0-2.9685,0c0,.0133.0035.0256.0039.0389A1.482,1.482,0,0,1,326.1909,130.4442Z"/><path class="cls-88" d="M369.8878,160.7262H306.7013a.77.77,0,0,1,0-1.54h63.1865a.77.77,0,0,1,0,1.54Z"/><path class="cls-88" d="M380.0812,160.7262h-4.6866a.77.77,0,0,1,0-1.54h4.6866a.77.77,0,1,1,0,1.54Z"/><path class="cls-88" d="M387.5532,160.7262h-3.5424a.77.77,0,0,1,0-1.54h3.5424a.77.77,0,0,1,0,1.54Z"/><path class="cls-93" d="M342.1929,167.8707H306.7013a.77.77,0,0,1,0-1.54h35.4916a.77.77,0,1,1,0,1.54Z"/><path class="cls-93" d="M354.5274,167.8707H344.346a.77.77,0,1,1,0-1.54h10.1814a.77.77,0,0,1,0,1.54Z"/><path class="cls-93" d="M354.5274,171.9788h-6.3292a.77.77,0,1,1,0-1.54h6.3292a.77.77,0,0,1,0,1.54Z"/><path class="cls-93" d="M345.1286,171.9788h-.7277a.77.77,0,1,1,0-1.54h.7277a.77.77,0,0,1,0,1.54Z"/><path class="cls-93" d="M340.7044,171.9788h-5.57a.77.77,0,1,1,0-1.54h5.57a.77.77,0,1,1,0,1.54Z"/><path class="cls-93" d="M330.71,171.9788h-5.57a.77.77,0,0,1,0-1.54h5.57a.77.77,0,0,1,0,1.54Z"/><path class="cls-93" d="M320.7153,171.9788h-5.57a.77.77,0,1,1,0-1.54h5.57a.77.77,0,1,1,0,1.54Z"/><path class="cls-94" d="M373.6723,176.9737h-58.527a.77.77,0,0,1,0-1.54h58.527a.77.77,0,0,1,0,1.54Z"/><path class="cls-93" d="M308.7115,171.9788h-2.01a.77.77,0,0,1,0-1.54h2.01a.77.77,0,1,1,0,1.54Z"/><path class="cls-93" d="M308.7115,176.9737h-2.01a.77.77,0,0,1,0-1.54h2.01a.77.77,0,1,1,0,1.54Z"/><path class="cls-93" d="M308.7115,181.9685h-2.01a.77.77,0,0,1,0-1.54h2.01a.77.77,0,1,1,0,1.54Z"/><path class="cls-93" d="M308.7115,186.9634h-2.01a.77.77,0,0,1,0-1.54h2.01a.77.77,0,1,1,0,1.54Z"/><path class="cls-94" d="M386.1669,176.9737h-7.2742a.77.77,0,1,1,0-1.54h7.2742a.77.77,0,0,1,0,1.54Z"/><path class="cls-94" d="M338.7723,181.9685H314.94a.77.77,0,1,1,0-1.54h23.8322a.77.77,0,1,1,0,1.54Z"/><path class="cls-95" d="M375.3946,197.3207H348.1982a.77.77,0,1,1,0-1.54h27.1964a.77.77,0,0,1,0,1.54Z"/><path class="cls-95" d="M375.3946,192.2033H355.6453a.77.77,0,0,1,0-1.54h19.7493a.77.77,0,0,1,0,1.54Z"/><path class="cls-95" d="M375.3946,186.9634h-7.8411a.77.77,0,0,1,0-1.54h7.8411a.77.77,0,0,1,0,1.54Z"/><path class="cls-94" d="M335.1344,153.7816H306.7013a.77.77,0,0,1,0-1.54h28.4331a.77.77,0,1,1,0,1.54Z"/><path class="cls-95" d="M353.5862,209.4826H306.7013a.77.77,0,1,1,0-1.54h46.8849a.77.77,0,0,1,0,1.54Z"/><path class="cls-95" d="M353.5862,215.639H306.7013a.77.77,0,0,1,0-1.54h46.8849a.77.77,0,0,1,0,1.54Z"/><path class="cls-95" d="M353.5862,221.7953H306.7013a.77.77,0,1,1,0-1.54h46.8849a.77.77,0,0,1,0,1.54Z"/><path class="cls-95" d="M353.5862,258.5672H306.7013a.77.77,0,0,1,0-1.54h46.8849a.77.77,0,0,1,0,1.54Z"/><path class="cls-88" d="M363.6029,202.3351h-12.81a.77.77,0,0,1,0-1.54h12.81a.77.77,0,0,1,0,1.54Z"/><path class="cls-88" d="M387.5532,202.3351H369.8878a.77.77,0,0,1,0-1.54h17.6654a.77.77,0,0,1,0,1.54Z"/><path class="cls-88" d="M387.5532,209.4826H369.8878a.77.77,0,0,1,0-1.54h17.6654a.77.77,0,0,1,0,1.54Z"/><path class="cls-88" d="M312.48,267.9224h-5.7782a.77.77,0,1,1,0-1.54H312.48a.77.77,0,1,1,0,1.54Z"/><path class="cls-88" d="M312.48,272.6038h-5.7782a.77.77,0,0,1,0-1.54H312.48a.77.77,0,0,1,0,1.54Z"/><path class="cls-88" d="M359.45,272.6038H315.9339a.77.77,0,0,1,0-1.54H359.45a.77.77,0,0,1,0,1.54Z"/><path class="cls-88" d="M323.8073,267.9224h-5.7789a.77.77,0,1,1,0-1.54h5.7789a.77.77,0,1,1,0,1.54Z"/><path class="cls-88" d="M335.1344,267.9224h-5.7782a.77.77,0,1,1,0-1.54h5.7782a.77.77,0,1,1,0,1.54Z"/><path class="cls-88" d="M346.4615,267.9224h-5.7782a.77.77,0,1,1,0-1.54h5.7782a.77.77,0,1,1,0,1.54Z"/><path class="cls-88" d="M357.7886,267.9224H352.01a.77.77,0,1,1,0-1.54h5.7782a.77.77,0,1,1,0,1.54Z"/><path class="cls-88" d="M369.1157,267.9224h-5.7782a.77.77,0,1,1,0-1.54h5.7782a.77.77,0,1,1,0,1.54Z"/><path class="cls-88" d="M378.1341,267.9224h-3.4695a.77.77,0,1,1,0-1.54h3.4695a.77.77,0,1,1,0,1.54Z"/><rect class="cls-71" x="358.7339" y="80.3867" width="78.331" height="71.8031" rx="3.1588"/><path class="cls-73" d="M434.0652,79.7491H361.7336a3,3,0,0,0-3,3v.6375a3,3,0,0,1,3-3h72.3316a3,3,0,0,1,3,3v-.6375A3,3,0,0,0,434.0652,79.7491Z"/><path class="cls-73" d="M434.0652,80.3866H361.7336a3,3,0,0,0-3,3v8.0478h78.331V83.3863A3,3,0,0,0,434.0652,80.3866Z"/><path class="cls-74" d="M434.0652,80.3866H361.7336a3,3,0,0,0-3,3v.1068a3,3,0,0,1,3-3h72.3316a3,3,0,0,1,3,3v-.1068A3,3,0,0,0,434.0652,80.3866Z"/><rect class="cls-74" x="358.7339" y="90.9883" width="78.331" height="0.4458"/><rect class="cls-75" x="363.0037" y="94.7539" width="70.0271" height="53.8297" rx="2.4006"/><circle class="cls-76" cx="364.6526" cy="85.9104" r="2.9848"/><path class="cls-74" d="M364.6526,88.7824a2.9816,2.9816,0,0,1-2.9791-2.9285c0,.0193-.0057.0371-.0057.0565a2.9848,2.9848,0,1,0,5.97,0c0-.0194-.0053-.0372-.0057-.0565A2.9816,2.9816,0,0,1,364.6526,88.7824Z"/><circle class="cls-73" cx="364.6526" cy="85.9104" r="2.3155"/><circle class="cls-77" cx="364.6526" cy="85.9104" r="1.8909"/><path class="cls-78" d="M364.6526,84.0724a1.8894,1.8894,0,0,1,1.8883,1.8644c0-.009.0026-.0174.0026-.0264a1.8909,1.8909,0,1,0-3.7818,0c0,.009.0025.0174.0026.0264A1.8894,1.8894,0,0,1,364.6526,84.0724Z"/><circle class="cls-79" cx="364.6526" cy="85.9104" r="1.1408"/><path class="cls-78" d="M364.6526,84.8293A1.1391,1.1391,0,0,1,365.79,85.94c0-.01.003-.02.003-.03a1.1408,1.1408,0,1,0-2.2816,0c0,.01.0027.02.003.03A1.1391,1.1391,0,0,1,364.6526,84.8293Z"/><circle class="cls-76" cx="373.3003" cy="85.9104" r="2.9848"/><path class="cls-74" d="M373.3,88.7824a2.9816,2.9816,0,0,1-2.9792-2.9285c0,.0193-.0057.0371-.0057.0565a2.9848,2.9848,0,1,0,5.97,0c0-.0194-.0053-.0372-.0056-.0565A2.9816,2.9816,0,0,1,373.3,88.7824Z"/><circle class="cls-73" cx="373.3003" cy="85.9104" r="2.3155"/><circle class="cls-80" cx="373.3003" cy="85.9104" r="1.8909"/><path class="cls-81" d="M373.3,84.0724a1.8893,1.8893,0,0,1,1.8882,1.8644c0-.009.0027-.0174.0027-.0264a1.891,1.891,0,0,0-3.7819,0c0,.009.0025.0174.0027.0264A1.8893,1.8893,0,0,1,373.3,84.0724Z"/><circle class="cls-82" cx="373.3003" cy="85.9104" r="1.1408"/><path class="cls-83" d="M373.3,84.8293a1.1392,1.1392,0,0,1,1.1378,1.1109c0-.01.003-.02.003-.03a1.1409,1.1409,0,0,0-2.2817,0c0,.01.0028.02.003.03A1.1392,1.1392,0,0,1,373.3,84.8293Z"/><circle class="cls-76" cx="381.9481" cy="85.9104" r="2.9848"/><path class="cls-74" d="M381.9481,88.7824a2.9816,2.9816,0,0,1-2.9791-2.9285c0,.0193-.0057.0371-.0057.0565a2.9848,2.9848,0,0,0,5.97,0c0-.0194-.0053-.0372-.0057-.0565A2.9816,2.9816,0,0,1,381.9481,88.7824Z"/><circle class="cls-73" cx="381.9481" cy="85.9104" r="2.3155"/><circle class="cls-84" cx="381.9481" cy="85.9104" r="1.8909"/><path class="cls-85" d="M381.9481,84.0724a1.8894,1.8894,0,0,1,1.8883,1.8644c0-.009.0026-.0174.0026-.0264a1.8909,1.8909,0,1,0-3.7818,0c0,.009.0025.0174.0026.0264A1.8894,1.8894,0,0,1,381.9481,84.0724Z"/><circle class="cls-86" cx="381.9481" cy="85.9104" r="1.1408"/><path class="cls-85" d="M381.9481,84.8293a1.1391,1.1391,0,0,1,1.1378,1.1109c0-.01.003-.02.003-.03a1.1408,1.1408,0,0,0-2.2816,0c0,.01.0027.02.003.03A1.1391,1.1391,0,0,1,381.9481,84.8293Z"/><path class="cls-88" d="M415.5346,108.1047H366.9679a.5917.5917,0,0,1,0-1.1834h48.5667a.5917.5917,0,1,1,0,1.1834Z"/><path class="cls-88" d="M423.3694,108.1047h-3.6022a.5917.5917,0,0,1,0-1.1834h3.6022a.5917.5917,0,1,1,0,1.1834Z"/><path class="cls-88" d="M429.1126,108.1047H426.39a.5917.5917,0,0,1,0-1.1834h2.7228a.5917.5917,0,1,1,0,1.1834Z"/><path class="cls-93" d="M394.2476,113.5962h-27.28a.5917.5917,0,1,1,0-1.1834h27.28a.5917.5917,0,1,1,0,1.1834Z"/><path class="cls-93" d="M403.7282,113.5962h-7.8257a.5917.5917,0,0,1,0-1.1834h7.8257a.5917.5917,0,1,1,0,1.1834Z"/><path class="cls-93" d="M403.7282,116.7538h-4.8648a.5917.5917,0,0,1,0-1.1834h4.8648a.5917.5917,0,1,1,0,1.1834Z"/><path class="cls-93" d="M396.5041,116.7538h-.5594a.5917.5917,0,0,1,0-1.1834h.5594a.5917.5917,0,1,1,0,1.1834Z"/><path class="cls-93" d="M393.1035,116.7538h-4.2812a.5917.5917,0,0,1,0-1.1834h4.2812a.5917.5917,0,1,1,0,1.1834Z"/><path class="cls-93" d="M385.4217,116.7538h-4.2812a.5917.5917,0,0,1,0-1.1834h4.2812a.5917.5917,0,1,1,0,1.1834Z"/><path class="cls-93" d="M377.7394,116.7538h-4.2812a.5917.5917,0,0,1,0-1.1834h4.2812a.5917.5917,0,1,1,0,1.1834Z"/><path class="cls-94" d="M418.4434,120.5929H373.4582a.5917.5917,0,1,1,0-1.1834h44.9852a.5917.5917,0,0,1,0,1.1834Z"/><path class="cls-93" d="M368.5131,116.7538h-1.5452a.5917.5917,0,1,1,0-1.1834h1.5452a.5917.5917,0,1,1,0,1.1834Z"/><path class="cls-93" d="M368.5131,120.5929h-1.5452a.5917.5917,0,0,1,0-1.1834h1.5452a.5917.5917,0,0,1,0,1.1834Z"/><path class="cls-93" d="M368.5131,124.4321h-1.5452a.5917.5917,0,0,1,0-1.1834h1.5452a.5917.5917,0,0,1,0,1.1834Z"/><path class="cls-94" d="M428.047,120.5929h-5.5911a.5917.5917,0,1,1,0-1.1834h5.5911a.5917.5917,0,1,1,0,1.1834Z"/><path class="cls-94" d="M391.6185,124.4321H373.3a.5917.5917,0,1,1,0-1.1834h18.3181a.5917.5917,0,0,1,0,1.1834Z"/><path class="cls-95" d="M419.7672,129.4546H398.8634a.5917.5917,0,0,1,0-1.1834h20.9038a.5917.5917,0,0,1,0,1.1834Z"/><path class="cls-95" d="M419.7672,126.7925H413.74a.5917.5917,0,0,1,0-1.1834h6.0268a.5917.5917,0,0,1,0,1.1834Z"/><path class="cls-94" d="M388.8223,102.7669H366.9679a.5917.5917,0,0,1,0-1.1834h21.8544a.5917.5917,0,1,1,0,1.1834Z"/><path class="cls-95" d="M403.0047,140.1969H366.9679a.5917.5917,0,0,1,0-1.1834h36.0368a.5917.5917,0,1,1,0,1.1834Z"/><path class="cls-88" d="M410.7038,133.3088h-9.8457a.5917.5917,0,1,1,0-1.1834h9.8457a.5917.5917,0,1,1,0,1.1834Z"/><path class="cls-88" d="M429.1126,133.3088h-13.578a.5917.5917,0,1,1,0-1.1834h13.578a.5917.5917,0,1,1,0,1.1834Z"/><path class="cls-88" d="M429.1126,138.8026h-13.578a.5917.5917,0,1,1,0-1.1834h13.578a.5917.5917,0,0,1,0,1.1834Z"/><path class="cls-88" d="M371.4092,143.9857h-4.4413a.5917.5917,0,0,1,0-1.1834h4.4413a.5917.5917,0,1,1,0,1.1834Z"/><path class="cls-88" d="M407.5119,143.9857H374.0643a.5917.5917,0,0,1,0-1.1834h33.4476a.5917.5917,0,1,1,0,1.1834Z"/></g></g></svg>